<?xml version="1.0" standalone="no"?>
<!DOCTYPE svg PUBLIC "-//W3C//DTD SVG 20010904//EN"
 "http://www.w3.org/TR/2001/REC-SVG-20010904/DTD/svg10.dtd">
<svg version="1.0" xmlns="http://www.w3.org/2000/svg"
 width="275.000000pt" height="275.000000pt" viewBox="0 0 275.000000 275.000000"
 preserveAspectRatio="xMidYMid meet">
<metadata>
Created by potrace 1.14, written by Peter Selinger 2001-2017
</metadata>
<g transform="translate(0.000000,275.000000) scale(0.100000,-0.100000)"
fill="#000000" stroke="none">
<path d="M1258 2728 c-93 -9 -160 -18 -168 -23 -4 -2 -18 -6 -31 -8 -92 -17
-261 -86 -371 -151 -144 -85 -294 -217 -391 -344 -36 -47 -106 -158 -146 -232
-6 -10 -31 -17 -82 -21 l-74 -5 73 -2 c69 -2 72 -3 62 -22 -9 -16 -22 -20 -73
-22 l-62 -2 58 -3 c31 -2 57 -5 57 -7 0 -2 -14 -48 -30 -102 -17 -55 -33 -115
-36 -134 -3 -19 -7 -42 -9 -50 -9 -32 -19 -149 -19 -220 0 -160 28 -319 79
-462 l24 -67 -62 -4 -62 -3 66 -2 c62 -2 79 -10 79 -37 0 -2 -33 -6 -72 -8
l-73 -3 76 -2 c72 -2 76 -3 90 -29 185 -363 525 -625 931 -718 174 -40 422
-38 593 4 387 95 703 333 890 669 l40 72 70 2 70 2 -68 3 c-57 3 -68 7 -63 19
3 9 6 18 6 20 0 2 28 5 63 6 l62 2 -57 3 -57 4 23 62 c104 276 107 587 10 893
-13 42 -24 78 -24 80 0 2 24 5 53 7 l52 3 -62 2 c-55 2 -63 4 -63 22 0 16 8
20 63 23 l62 3 -72 2 c-44 1 -73 6 -73 13 0 17 -79 149 -136 224 -77 104 -158
186 -270 275 -245 193 -624 301 -946 268z"/>
</g>
</svg>
